:FULLY-SPECIFIED
:FORCE-ALL-JOINTS-BE-3DOF
:DEGREES
102
root 7.39728 16.6701 -26.7243 4.21086 10.5189 -4.01449
lfemur -27.4925 -4.56882 -10.4223
ltibia 39.4446 0 0
lfoot -18.5307 -3.09526 0
ltoes 16.5679 0 0
rfemur -31.505 -9.50124 8.08187
rtibia 72.9568 0 0
rfoot 14.0382 18.3029 0
rtoes -4.75194 0 0
lowerback 0.616348 2.14957 0.918552
upperback -1.35401 2.90716 1.8636
thorax -1.77812 1.45574 1.33953
lowerneck -10.3764 -4.91706 2.4179
upperneck -0.931523 -6.82251 0.943773
head 1.39978 -3.37654 -0.398505
lclavicle 2.00625e-14 -2.5078e-14 0
lhumerus -46.9794 -7.99939 93.341
lradius 48.4886 0 0
lwrist 15.7578 0 0
lhand 6.9714 8.43851 0
lfingers 7.12502 0 0
lthumb 32.2474 35.5845 0
rclavicle 2.00625e-14 -2.5078e-14 0
rhumerus -42.7505 0.15818 -72.6223
rradius 50.7083 0 0
rwrist -1.81629 0 0
rhand -18.092 -13.3712 0
rfingers 7.12502 0 0
rthumb 8.18148 -43.1897 0
103
root 7.44943 16.683 -26.6981 3.72635 10.8077 -3.68498
lfemur -26.6291 -4.19081 -11.1339
ltibia 38.9419 0 0
lfoot -18.4774 -4.10428 0
ltoes 18.1554 0 0
rfemur -33.8811 -8.54883 6.50272
rtibia 77.2746 0 0
rfoot 20.088 21.3439 0
rtoes 0.193009 0 0
lowerback 1.07787 1.97631 0.590622
upperback -1.19022 2.68334 1.89526
thorax -1.88776 1.34802 1.53864
lowerneck -10.4598 -4.92423 2.36605
upperneck -0.714847 -6.83288 0.920058
head 1.48527 -3.37885 -0.405206
lclavicle 2.21769e-14 -2.76311e-14 0
lhumerus -47.0891 -8.41949 93.5721
lradius 48.7876 0 0
lwrist 16.0762 0 0
lhand 7.63846 9.00616 0
lfingers 7.12502 0 0
lthumb 32.8832 36.0309 0
rclavicle 2.21769e-14 -2.76311e-14 0
rhumerus -42.8547 0.298152 -71.5966
rradius 50.7095 0 0
rwrist -1.6945 0 0
rhand -18.6097 -13.5435 0
rfingers 7.12502 0 0
rthumb 7.68192 -43.384 0
104
root 7.47298 16.6983 -26.6826 2.96971 11.3379 -3.56693
lfemur -25.6297 -3.69326 -11.5412
ltibia 38.4792 0 0
lfoot -18.0642 -5.1597 0
ltoes 20.191 0 0
rfemur -36.2668 -7.45045 4.7685
rtibia 80.7137 0 0
rfoot 22.941 21.273 0
rtoes 3.98119 0 0
lowerback 1.78947 1.67414 0.406763
upperback -0.881914 2.27736 1.95176
thorax -1.96173 1.14641 1.71069
lowerneck -10.5251 -4.88992 2.29184
upperneck -0.615527 -6.78104 0.879198
head 1.5311 -3.35289 -0.407682
lclavicle 1.39874e-14 -2.38873e-14 0
lhumerus -46.8287 -9.14496 93.6426
lradius 48.7893 0 0
lwrist 15.7134 0 0
lhand 7.77585 8.81509 0
lfingers 7.12502 0 0
lthumb 33.0138 35.8119 0
rclavicle 1.39874e-14 -2.38873e-14 0
rhumerus -42.8591 0.616208 -70.8511
rradius 50.706 0 0
rwrist 0.43085 0 0
rhand -19.5863 -14.4044 0
rfingers 7.12502 0 0
rthumb 6.73895 -44.2665 0
105
root 7.49654 16.7136 -26.6671 2.21307 11.8681 -3.44889
lfemur -24.6304 -3.19571 -11.9485
ltibia 38.0165 0 0
lfoot -17.651 -6.21512 0
ltoes 22.2266 0 0
rfemur -38.6524 -6.35207 3.03428
rtibia 84.1528 0 0
rfoot 25.7939 21.2021 0
rtoes 7.76937 0 0
lowerback 2.50107 1.37197 0.222904
upperback -0.573607 1.87139 2.00827
thorax -2.0357 0.944798 1.88273
lowerneck -10.5904 -4.85561 2.21764
upperneck -0.516207 -6.7292 0.838339
head 1.57692 -3.32693 -0.410159
lclavicle 5.79787e-15 -2.01435e-14 0
lhumerus -46.5682 -9.87043 93.7132
lradius 48.7909 0 0
lwrist 15.3506 0 0
lhand 7.91324 8.62402 0
lfingers 7.12502 0 0
lthumb 33.1445 35.5929 0
rclavicle 5.79787e-15 -2.01435e-14 0
rhumerus -42.8636 0.934265 -70.1056
rradius 50.7025 0 0
rwrist 2.5562 0 0
rhand -20.5629 -15.2653 0
rfingers 7.12502 0 0
rthumb 5.79598 -45.149 0
106
root 7.52009 16.729 -26.6516 1.45643 12.3984 -3.33085
lfemur -23.631 -2.69815 -12.3559
ltibia 37.5537 0 0
lfoot -17.2378 -7.27054 0
ltoes 24.2621 0 0
rfemur -41.038 -5.25368 1.30006
rtibia 87.5918 0 0
rfoot 28.6469 21.1311 0
rtoes 11.5576 0 0
lowerback 3.21267 1.0698 0.0390455
upperback -0.265301 1.46541 2.06477
thorax -2.10968 0.743188 2.05478
lowerneck -10.6557 -4.8213 2.14343
upperneck -0.416887 -6.67736 0.797479
head 1.62275 -3.30098 -0.412635
lclavicle -2.39165e-15 -1.63997e-14 0
lhumerus -46.3077 -10.5959 93.7837
lradius 48.7925 0 0
lwrist 14.9878 0 0
lhand 8.05063 8.43295 0
lfingers 7.12502 0 0
lthumb 33.2751 35.3739 0
rclavicle -2.39165e-15 -1.63997e-14 0
rhumerus -42.868 1.25232 -69.3601
rradius 50.6989 0 0
rwrist 4.68155 0 0
rhand -21.5395 -16.1262 0
rfingers 7.12502 0 0
rthumb 4.853 -46.0315 0
107
root 7.54364 16.7443 -26.6362 0.699785 12.9286 -3.2128
lfemur -22.6316 -2.2006 -12.7632
ltibia 37.091 0 0
lfoot -16.8246 -8.32596 0
ltoes 26.2977 0 0
rfemur -43.4237 -4.1553 -0.43416
rtibia 91.0309 0 0
rfoot 31.4998 21.0602 0
rtoes 15.3457 0 0
lowerback 3.92428 0.767625 -0.144813
upperback 0.043006 1.05943 2.12127
thorax -2.18365 0.541577 2.22682
lowerneck -10.7211 -4.787 2.06922
upperneck -0.317567 -6.62552 0.756619
head 1.66858 -3.27502 -0.415111
lclavicle -1.05812e-14 -1.2656e-14 0
lhumerus -46.0473 -11.3214 93.8542
lradius 48.7942 0 0
lwrist 14.6251 0 0
lhand 8.18803 8.24188 0
lfingers 7.12502 0 0
lthumb 33.4057 35.1548 0
rclavicle -1.05812e-14 -1.2656e-14 0
rhumerus -42.8724 1.57038 -68.6145
rradius 50.6954 0 0
rwrist 6.8069 0 0
rhand -22.5161 -16.9871 0
rfingers 7.12502 0 0
rthumb 3.91003 -46.914 0
